<svg width="41" height="40" viewBox="0 0 41 40" fill="none" xmlns="http://www.w3.org/2000/svg">
<mask id="mask0_2_173" style="mask-type:alpha" maskUnits="userSpaceOnUse" x="0" y="0" width="41" height="40">
<rect x="0.333252" width="40" height="40" fill="#D9D9D9"/>
</mask>
<g mask="url(#mask0_2_173)">
<path d="M14.5833 33.3333H26.0833L27.7499 26.6666H12.9166L14.5833 33.3333ZM14.5833 36.6666C13.8055 36.6666 13.1249 36.4305 12.5416 35.9583C11.9583 35.486 11.5694 34.8749 11.3749 34.1249L9.49992 26.6666H31.1666L29.2916 34.1249C29.0971 34.8749 28.7083 35.486 28.1249 35.9583C27.5416 36.4305 26.861 36.6666 26.0833 36.6666H14.5833ZM8.66659 23.3333H31.9999V19.9999H8.66659V23.3333ZM20.3333 13.3333C20.3333 10.5555 21.3055 8.19436 23.2499 6.24992C25.1944 4.30547 27.5555 3.33325 30.3333 3.33325C30.3333 5.83325 29.5416 7.99992 27.9583 9.83325C26.3749 11.6666 24.3888 12.7777 21.9999 13.1666V16.6666H35.3333V23.3333C35.3333 24.2499 35.0071 25.0344 34.3549 25.6866C33.7016 26.3399 32.9166 26.6666 31.9999 26.6666H8.66659C7.74992 26.6666 6.96492 26.3399 6.31159 25.6866C5.65936 25.0344 5.33325 24.2499 5.33325 23.3333V16.6666H18.6666V13.1666C16.2777 12.7777 14.2916 11.6666 12.7083 9.83325C11.1249 7.99992 10.3333 5.83325 10.3333 3.33325C13.111 3.33325 15.4721 4.30547 17.4166 6.24992C19.361 8.19436 20.3333 10.5555 20.3333 13.3333Z" fill="black"/>
</g>
</svg>
