<svg width="16" height="14" viewBox="0 0 16 14" fill="none" xmlns="http://www.w3.org/2000/svg">
<path d="M8.9855 14H5.71019V4.66667H8.9855V6.22222C9.68365 5.37853 10.7424 4.87556 11.8719 4.851C13.903 4.86171 15.542 6.43174 15.5361 8.36111V14H12.2608V8.75C12.1298 7.88093 11.3452 7.23612 10.4209 7.238C10.0166 7.25014 9.63502 7.41827 9.36415 7.70359C9.09328 7.98892 8.95655 8.36679 8.9855 8.75V14ZM4.07254 14H0.797241V4.66667H4.07254V14ZM2.43489 3.11111C1.53044 3.11111 0.797241 2.41467 0.797241 1.55556C0.797241 0.696446 1.53044 0 2.43489 0C3.33934 0 4.07254 0.696446 4.07254 1.55556C4.07254 1.96811 3.90001 2.36378 3.59289 2.6555C3.28577 2.94722 2.86922 3.11111 2.43489 3.11111Z" fill="white"/>
</svg>
